<svg xmlns="http://www.w3.org/2000/svg" height="40" viewBox="0 -960 960 960" width="40"><path d="M480.185-133.667q-95.352 0-161.102-65.619t-65.75-161.047v-239.334q0-95.428 65.565-161.047 65.565-65.62 160.917-65.62t161.102 65.62q65.75 65.619 65.75 161.047v239.334q0 95.428-65.565 161.047t-160.917 65.619Zm11.815-466h191.5q0-83.159-56.333-141.58-56.334-58.42-135.167-62.587v204.167Zm-215.5 0h192.333v-204.167q-79.666 4.167-136 62.587-56.333 58.421-56.333 141.58Zm203.125 442.834q84.297 0 144.086-59.524Q683.5-275.881 683.5-360.333V-576.5h-407v216.167q0 84.452 59.414 143.976t143.711 59.524ZM480-576.5Zm12-23.167Zm-23.167 0ZM480-576.5Z"/></svg>